<svg width="66" height="26" viewBox="0 0 66 26" fill="none" xmlns="http://www.w3.org/2000/svg">
<path d="M46 10L54 18L62 10" stroke="black" stroke-width="4" stroke-linecap="round" stroke-linejoin="round"/>
<mask id="mask0_24_196" style="mask-type:alpha" maskUnits="userSpaceOnUse" x="1" y="1" width="32" height="24">
<rect x="1" y="1" width="32" height="24" fill="white"/>
</mask>
<g mask="url(#mask0_24_196)">
<path fill-rule="evenodd" clip-rule="evenodd" d="M1 1V25H33V1H1Z" fill="#F7FCFF"/>
<mask id="mask1_24_196" style="mask-type:alpha" maskUnits="userSpaceOnUse" x="1" y="1" width="32" height="24">
<path fill-rule="evenodd" clip-rule="evenodd" d="M1 1V25H33V1H1Z" fill="white"/>
</mask>
<g mask="url(#mask1_24_196)">
<path fill-rule="evenodd" clip-rule="evenodd" d="M1 13V25H33V13H1Z" fill="#C51918"/>
</g>
</g>
<path d="M1 1V0.5H0.5V1H1ZM33 1H33.5V0.5H33V1ZM33 25V25.5H33.5V25H33ZM1 25H0.5V25.5H1V25ZM1 1.5H33V0.5H1V1.5ZM32.5 1V25H33.5V1H32.5ZM33 24.5H1V25.5H33V24.5ZM1.5 25V1H0.5V25H1.5Z" fill="black"/>
</svg>
